<?xml version="1.0" standalone="no"?>
<!DOCTYPE svg PUBLIC "-//W3C//DTD SVG 20010904//EN"
 "http://www.w3.org/TR/2001/REC-SVG-20010904/DTD/svg10.dtd">
<svg version="1.0" xmlns="http://www.w3.org/2000/svg"
 width="742.000000pt" height="742.000000pt" viewBox="0 0 742.000000 742.000000"
 preserveAspectRatio="xMidYMid meet">
<metadata>
Created by potrace 1.11, written by Peter Selinger 2001-2013
</metadata>
<g transform="translate(0.000000,742.000000) scale(0.100000,-0.100000)"
fill="#000000" stroke="none">
<path d="M0 6476 c0 -3 439 -1230 976 -2728 537 -1498 983 -2742 991 -2765
l15 -43 1728 0 1728 0 15 43 c8 23 454 1267 991 2765 537 1498 976 2725 976
2728 0 2 -1669 4 -3710 4 -2041 0 -3710 -2 -3710 -4z m7012 -379 c-20 -57
-422 -1177 -892 -2490 l-855 -2387 -1555 0 -1555 0 -875 2443 c-481 1343 -882
2463 -892 2490 l-18 47 3339 0 3340 0 -37 -103z"/>
<path d="M800 5916 c0 -15 1279 -3667 1572 -4488 l10 -28 394 0 c270 0 394 3
394 11 0 10 -47 145 -851 2431 -247 702 -449 1279 -449 1282 0 3 114 6 254 6
l253 0 161 -277 c1038 -1797 1165 -2014 1173 -2005 12 13 670 1146 1213 2089
l111 193 257 0 258 0 -11 -27 c-6 -16 -184 -521 -396 -1123 -211 -602 -501
-1427 -644 -1832 -142 -405 -259 -739 -259 -742 0 -4 179 -5 397 -4 l397 3
503 1430 c277 787 634 1800 793 2253 160 452 290 825 290 827 0 3 -456 5
-1014 5 l-1014 0 -253 -437 c-139 -241 -336 -582 -436 -758 -101 -176 -188
-324 -192 -328 -4 -4 -105 162 -224 370 -120 208 -317 551 -440 763 l-223 385
-1012 3 c-557 1 -1012 0 -1012 -2z"/>
</g>
</svg>
